<mxfile host="Electron" modified="2023-06-02T11:01:11.074Z" agent="Mozilla/5.0 (Windows NT 10.0; Win64; x64) AppleWebKit/537.36 (KHTML, like Gecko) draw.io/21.2.8 Chrome/112.0.5615.165 Electron/24.2.0 Safari/537.36" etag="qMDZ6vdCBjmqoAXheN41" version="21.2.8" type="device">
  <diagram name="Page-1" id="dXCrmej_SELilW4q_A5O">
    <mxGraphModel dx="1569" dy="1171" grid="1" gridSize="10" guides="1" tooltips="1" connect="1" arrows="1" fold="1" page="1" pageScale="1" pageWidth="850" pageHeight="1100" math="0" shadow="0">
      <root>
        <mxCell id="0" />
        <mxCell id="1" parent="0" />
        <mxCell id="Dqj2xxhlHjJNIsNR0y4L-1" style="edgeStyle=orthogonalEdgeStyle;rounded=0;orthogonalLoop=1;jettySize=auto;html=1;" parent="1" source="Dqj2xxhlHjJNIsNR0y4L-2" target="Dqj2xxhlHjJNIsNR0y4L-4" edge="1">
          <mxGeometry relative="1" as="geometry" />
        </mxCell>
        <mxCell id="Dqj2xxhlHjJNIsNR0y4L-2" value="" style="ellipse;html=1;fillColor=#141314;strokeColor=#9673a6;" parent="1" vertex="1">
          <mxGeometry x="434.56" y="95" width="30" height="30" as="geometry" />
        </mxCell>
        <mxCell id="Dqj2xxhlHjJNIsNR0y4L-3" style="edgeStyle=orthogonalEdgeStyle;rounded=0;orthogonalLoop=1;jettySize=auto;html=1;" parent="1" source="Dqj2xxhlHjJNIsNR0y4L-4" target="Dqj2xxhlHjJNIsNR0y4L-6" edge="1">
          <mxGeometry relative="1" as="geometry" />
        </mxCell>
        <mxCell id="Dqj2xxhlHjJNIsNR0y4L-4" value="Вход в системата" style="html=1;dashed=0;whitespace=wrap;" parent="1" vertex="1">
          <mxGeometry x="381.75" y="155" width="135.62" height="30" as="geometry" />
        </mxCell>
        <mxCell id="Dqj2xxhlHjJNIsNR0y4L-5" style="edgeStyle=orthogonalEdgeStyle;rounded=0;orthogonalLoop=1;jettySize=auto;html=1;" parent="1" source="Dqj2xxhlHjJNIsNR0y4L-6" target="Dqj2xxhlHjJNIsNR0y4L-8" edge="1">
          <mxGeometry relative="1" as="geometry" />
        </mxCell>
        <mxCell id="Dqj2xxhlHjJNIsNR0y4L-6" value="Отваряне на раздел&lt;br&gt;УПРАВЛЕНИЕ НА РЕСУРСИ" style="html=1;dashed=0;whitespace=wrap;" parent="1" vertex="1">
          <mxGeometry x="364.01" y="205" width="171.09" height="40" as="geometry" />
        </mxCell>
        <mxCell id="_0RtPJ1QO2Pk17CII41--2" style="edgeStyle=orthogonalEdgeStyle;rounded=0;orthogonalLoop=1;jettySize=auto;html=1;" edge="1" parent="1" source="Dqj2xxhlHjJNIsNR0y4L-8" target="_0RtPJ1QO2Pk17CII41--1">
          <mxGeometry relative="1" as="geometry" />
        </mxCell>
        <mxCell id="Dqj2xxhlHjJNIsNR0y4L-8" value="Избор на раздел&lt;br&gt;УРОЦИ" style="html=1;dashed=0;whitespace=wrap;" parent="1" vertex="1">
          <mxGeometry x="364.01" y="265" width="171.09" height="40" as="geometry" />
        </mxCell>
        <mxCell id="_0RtPJ1QO2Pk17CII41--5" style="edgeStyle=orthogonalEdgeStyle;rounded=0;orthogonalLoop=1;jettySize=auto;html=1;" edge="1" parent="1" source="_0RtPJ1QO2Pk17CII41--1" target="_0RtPJ1QO2Pk17CII41--4">
          <mxGeometry relative="1" as="geometry" />
        </mxCell>
        <mxCell id="_0RtPJ1QO2Pk17CII41--1" value="Избор на&lt;br&gt;ЕРА" style="html=1;dashed=0;whitespace=wrap;" vertex="1" parent="1">
          <mxGeometry x="364.01" y="325" width="171.09" height="40" as="geometry" />
        </mxCell>
        <mxCell id="_0RtPJ1QO2Pk17CII41--8" style="edgeStyle=orthogonalEdgeStyle;rounded=0;orthogonalLoop=1;jettySize=auto;html=1;" edge="1" parent="1" source="_0RtPJ1QO2Pk17CII41--4" target="_0RtPJ1QO2Pk17CII41--7">
          <mxGeometry relative="1" as="geometry">
            <Array as="points">
              <mxPoint x="589" y="420" />
            </Array>
          </mxGeometry>
        </mxCell>
        <mxCell id="_0RtPJ1QO2Pk17CII41--11" style="edgeStyle=orthogonalEdgeStyle;rounded=0;orthogonalLoop=1;jettySize=auto;html=1;" edge="1" parent="1" source="_0RtPJ1QO2Pk17CII41--4" target="_0RtPJ1QO2Pk17CII41--9">
          <mxGeometry relative="1" as="geometry" />
        </mxCell>
        <mxCell id="_0RtPJ1QO2Pk17CII41--4" value="" style="rhombus;whiteSpace=wrap;html=1;" vertex="1" parent="1">
          <mxGeometry x="424" y="395" width="50" height="50" as="geometry" />
        </mxCell>
        <mxCell id="_0RtPJ1QO2Pk17CII41--19" style="edgeStyle=orthogonalEdgeStyle;rounded=0;orthogonalLoop=1;jettySize=auto;html=1;" edge="1" parent="1" source="_0RtPJ1QO2Pk17CII41--7" target="_0RtPJ1QO2Pk17CII41--16">
          <mxGeometry relative="1" as="geometry">
            <Array as="points">
              <mxPoint x="589" y="540" />
            </Array>
          </mxGeometry>
        </mxCell>
        <mxCell id="_0RtPJ1QO2Pk17CII41--7" value="Избор на&lt;br&gt;УРОК" style="html=1;dashed=0;whitespace=wrap;" vertex="1" parent="1">
          <mxGeometry x="499" y="465" width="171.09" height="40" as="geometry" />
        </mxCell>
        <mxCell id="_0RtPJ1QO2Pk17CII41--12" style="edgeStyle=orthogonalEdgeStyle;rounded=0;orthogonalLoop=1;jettySize=auto;html=1;entryX=0.5;entryY=0;entryDx=0;entryDy=0;" edge="1" parent="1" source="_0RtPJ1QO2Pk17CII41--9" target="_0RtPJ1QO2Pk17CII41--10">
          <mxGeometry relative="1" as="geometry" />
        </mxCell>
        <mxCell id="_0RtPJ1QO2Pk17CII41--9" value="Въвеждане на име" style="html=1;dashed=0;whitespace=wrap;" vertex="1" parent="1">
          <mxGeometry x="179" y="400" width="171.09" height="40" as="geometry" />
        </mxCell>
        <mxCell id="_0RtPJ1QO2Pk17CII41--20" style="edgeStyle=orthogonalEdgeStyle;rounded=0;orthogonalLoop=1;jettySize=auto;html=1;" edge="1" parent="1" source="_0RtPJ1QO2Pk17CII41--10" target="_0RtPJ1QO2Pk17CII41--16">
          <mxGeometry relative="1" as="geometry">
            <Array as="points">
              <mxPoint x="265" y="540" />
            </Array>
          </mxGeometry>
        </mxCell>
        <mxCell id="_0RtPJ1QO2Pk17CII41--10" value="Създаване на УРОК" style="html=1;dashed=0;whitespace=wrap;" vertex="1" parent="1">
          <mxGeometry x="179" y="465" width="171.09" height="40" as="geometry" />
        </mxCell>
        <mxCell id="_0RtPJ1QO2Pk17CII41--13" value="създава" style="text;html=1;strokeColor=none;fillColor=none;align=center;verticalAlign=middle;whiteSpace=wrap;rounded=0;" vertex="1" parent="1">
          <mxGeometry x="364.01" y="395" width="60" height="30" as="geometry" />
        </mxCell>
        <mxCell id="_0RtPJ1QO2Pk17CII41--15" value="редактира" style="text;html=1;strokeColor=none;fillColor=none;align=center;verticalAlign=middle;whiteSpace=wrap;rounded=0;" vertex="1" parent="1">
          <mxGeometry x="499" y="395" width="60" height="30" as="geometry" />
        </mxCell>
        <mxCell id="_0RtPJ1QO2Pk17CII41--22" style="edgeStyle=orthogonalEdgeStyle;rounded=0;orthogonalLoop=1;jettySize=auto;html=1;" edge="1" parent="1" source="_0RtPJ1QO2Pk17CII41--16" target="_0RtPJ1QO2Pk17CII41--21">
          <mxGeometry relative="1" as="geometry" />
        </mxCell>
        <mxCell id="_0RtPJ1QO2Pk17CII41--16" value="" style="rhombus;whiteSpace=wrap;html=1;" vertex="1" parent="1">
          <mxGeometry x="424" y="515" width="50" height="50" as="geometry" />
        </mxCell>
        <mxCell id="_0RtPJ1QO2Pk17CII41--23" style="edgeStyle=orthogonalEdgeStyle;rounded=0;orthogonalLoop=1;jettySize=auto;html=1;entryX=1;entryY=0.5;entryDx=0;entryDy=0;" edge="1" parent="1" source="_0RtPJ1QO2Pk17CII41--21" target="_0RtPJ1QO2Pk17CII41--24">
          <mxGeometry relative="1" as="geometry">
            <mxPoint x="319" y="620" as="targetPoint" />
          </mxGeometry>
        </mxCell>
        <mxCell id="_0RtPJ1QO2Pk17CII41--26" style="edgeStyle=orthogonalEdgeStyle;rounded=0;orthogonalLoop=1;jettySize=auto;html=1;" edge="1" parent="1" source="_0RtPJ1QO2Pk17CII41--21" target="_0RtPJ1QO2Pk17CII41--25">
          <mxGeometry relative="1" as="geometry" />
        </mxCell>
        <mxCell id="_0RtPJ1QO2Pk17CII41--21" value="" style="rhombus;whiteSpace=wrap;html=1;" vertex="1" parent="1">
          <mxGeometry x="424" y="595" width="50" height="50" as="geometry" />
        </mxCell>
        <mxCell id="_0RtPJ1QO2Pk17CII41--31" style="edgeStyle=orthogonalEdgeStyle;rounded=0;orthogonalLoop=1;jettySize=auto;html=1;" edge="1" parent="1" source="_0RtPJ1QO2Pk17CII41--24" target="_0RtPJ1QO2Pk17CII41--30">
          <mxGeometry relative="1" as="geometry" />
        </mxCell>
        <mxCell id="_0RtPJ1QO2Pk17CII41--24" value="Въвеждане на име" style="html=1;dashed=0;whitespace=wrap;" vertex="1" parent="1">
          <mxGeometry x="179" y="600" width="171.09" height="40" as="geometry" />
        </mxCell>
        <mxCell id="_0RtPJ1QO2Pk17CII41--34" style="edgeStyle=orthogonalEdgeStyle;rounded=0;orthogonalLoop=1;jettySize=auto;html=1;entryX=1;entryY=0.5;entryDx=0;entryDy=0;" edge="1" parent="1" source="_0RtPJ1QO2Pk17CII41--25" target="_0RtPJ1QO2Pk17CII41--33">
          <mxGeometry relative="1" as="geometry">
            <Array as="points">
              <mxPoint x="585" y="750" />
            </Array>
          </mxGeometry>
        </mxCell>
        <mxCell id="_0RtPJ1QO2Pk17CII41--25" value="Избор на&lt;br&gt;ТОЧКА" style="html=1;dashed=0;whitespace=wrap;" vertex="1" parent="1">
          <mxGeometry x="499" y="675" width="171.09" height="40" as="geometry" />
        </mxCell>
        <mxCell id="_0RtPJ1QO2Pk17CII41--27" value="добавя&lt;br&gt;точка" style="text;html=1;strokeColor=none;fillColor=none;align=center;verticalAlign=middle;whiteSpace=wrap;rounded=0;" vertex="1" parent="1">
          <mxGeometry x="364" y="605" width="60" height="30" as="geometry" />
        </mxCell>
        <mxCell id="_0RtPJ1QO2Pk17CII41--29" value="редактира&lt;br&gt;точка" style="text;html=1;strokeColor=none;fillColor=none;align=center;verticalAlign=middle;whiteSpace=wrap;rounded=0;" vertex="1" parent="1">
          <mxGeometry x="499" y="605" width="60" height="30" as="geometry" />
        </mxCell>
        <mxCell id="_0RtPJ1QO2Pk17CII41--35" style="edgeStyle=orthogonalEdgeStyle;rounded=0;orthogonalLoop=1;jettySize=auto;html=1;" edge="1" parent="1" source="_0RtPJ1QO2Pk17CII41--30" target="_0RtPJ1QO2Pk17CII41--33">
          <mxGeometry relative="1" as="geometry">
            <Array as="points">
              <mxPoint x="265" y="750" />
            </Array>
          </mxGeometry>
        </mxCell>
        <mxCell id="_0RtPJ1QO2Pk17CII41--30" value="Добавяне на ТОЧКА" style="html=1;dashed=0;whitespace=wrap;" vertex="1" parent="1">
          <mxGeometry x="179" y="675" width="171.09" height="40" as="geometry" />
        </mxCell>
        <mxCell id="_0RtPJ1QO2Pk17CII41--38" style="edgeStyle=orthogonalEdgeStyle;rounded=0;orthogonalLoop=1;jettySize=auto;html=1;entryX=0.5;entryY=0;entryDx=0;entryDy=0;" edge="1" parent="1" source="_0RtPJ1QO2Pk17CII41--33" target="_0RtPJ1QO2Pk17CII41--37">
          <mxGeometry relative="1" as="geometry" />
        </mxCell>
        <mxCell id="_0RtPJ1QO2Pk17CII41--33" value="" style="rhombus;whiteSpace=wrap;html=1;" vertex="1" parent="1">
          <mxGeometry x="424" y="725" width="50" height="50" as="geometry" />
        </mxCell>
        <mxCell id="_0RtPJ1QO2Pk17CII41--43" style="edgeStyle=orthogonalEdgeStyle;rounded=0;orthogonalLoop=1;jettySize=auto;html=1;" edge="1" parent="1" source="_0RtPJ1QO2Pk17CII41--37" target="_0RtPJ1QO2Pk17CII41--40">
          <mxGeometry relative="1" as="geometry" />
        </mxCell>
        <mxCell id="_0RtPJ1QO2Pk17CII41--37" value="Редактиране на&lt;br&gt;необходимите полета" style="html=1;dashed=0;whitespace=wrap;" vertex="1" parent="1">
          <mxGeometry x="364.01" y="820" width="171.09" height="40" as="geometry" />
        </mxCell>
        <mxCell id="_0RtPJ1QO2Pk17CII41--39" value="Име, период, текст, изображения, видеа, интересни факти" style="shape=note2;boundedLbl=1;whiteSpace=wrap;html=1;size=25;verticalAlign=top;align=center;" vertex="1" parent="1">
          <mxGeometry x="250" y="785" width="129" height="80" as="geometry" />
        </mxCell>
        <mxCell id="_0RtPJ1QO2Pk17CII41--44" style="edgeStyle=orthogonalEdgeStyle;rounded=0;orthogonalLoop=1;jettySize=auto;html=1;entryX=0.5;entryY=0;entryDx=0;entryDy=0;" edge="1" parent="1" source="_0RtPJ1QO2Pk17CII41--40" target="_0RtPJ1QO2Pk17CII41--41">
          <mxGeometry relative="1" as="geometry" />
        </mxCell>
        <mxCell id="_0RtPJ1QO2Pk17CII41--40" value="Запазване на&lt;br&gt;ТОЧКАТА" style="html=1;dashed=0;whitespace=wrap;" vertex="1" parent="1">
          <mxGeometry x="369.5600000000001" y="895" width="160" height="40" as="geometry" />
        </mxCell>
        <mxCell id="_0RtPJ1QO2Pk17CII41--41" value="" style="ellipse;whiteSpace=wrap;html=1;aspect=fixed;" vertex="1" parent="1">
          <mxGeometry x="434.5600000000001" y="975" width="30" height="30" as="geometry" />
        </mxCell>
        <mxCell id="_0RtPJ1QO2Pk17CII41--42" value="" style="ellipse;whiteSpace=wrap;html=1;aspect=fixed;fillColor=#141314;" vertex="1" parent="1">
          <mxGeometry x="439.5600000000001" y="980" width="20" height="20" as="geometry" />
        </mxCell>
      </root>
    </mxGraphModel>
  </diagram>
</mxfile>
